<svg xmlns:xlink="http://www.w3.org/1999/xlink" xmlns="http://www.w3.org/2000/svg" aria-label="Loading..." fill="current" viewBox="0 0 100 100" width="current"  height="current" ><rect height="10" opacity="0" rx="5" ry="5" transform="rotate(-90 50 50)" width="28" x="67" y="45"></rect><rect height="10" opacity="0.125" rx="5" ry="5" transform="rotate(-45 50 50)" width="28" x="67" y="45"></rect><rect height="10" opacity="0.25" rx="5" ry="5" transform="rotate(0 50 50)" width="28" x="67" y="45"></rect><rect height="10" opacity="0.375" rx="5" ry="5" transform="rotate(45 50 50)" width="28" x="67" y="45"></rect><rect height="10" opacity="0.5" rx="5" ry="5" transform="rotate(90 50 50)" width="28" x="67" y="45"></rect><rect height="10" opacity="0.625" rx="5" ry="5" transform="rotate(135 50 50)" width="28" x="67" y="45"></rect><rect height="10" opacity="0.75" rx="5" ry="5" transform="rotate(180 50 50)" width="28" x="67" y="45"></rect><rect height="10" opacity="0.875" rx="5" ry="5" transform="rotate(225 50 50)" width="28" x="67" y="45"></rect></svg>